<?xml version="1.0" encoding="UTF-8"?>
<svg version="1.1" xmlns="http://www.w3.org/2000/svg" width="360" height="360">
<path d="M0 0 C2.5625 2.3125 2.5625 2.3125 5 5 C5.94875 5.763125 6.8975 6.52625 7.875 7.3125 C10.17003358 9.18999297 12.06322299 11.16729039 13.96875 13.4375 C18.89931858 19.13575253 24.27819118 24.38547323 29.625 29.6875 C30.65909041 30.71655953 31.69294602 31.74585507 32.7265625 32.77539062 C34.62697857 34.66772395 36.528976 36.5584121 38.43212891 38.44799805 C40.9599432 40.96019075 43.48111564 43.47885633 46 46 C46.73669922 46.73669922 47.47339844 47.47339844 48.23242188 48.23242188 C60.53125 60.53125 60.53125 60.53125 62.890625 62.90209961 C64.13544581 64.14014883 65.3915217 65.36733746 66.671875 66.56860352 C69.14148039 68.89228574 70.66230898 70.49727271 71 73.9375 C71.0825 74.56527344 71.165 75.19304687 71.25 75.83984375 C70.57099476 81.70687336 66.62974753 85.81087501 62.61264038 89.80195618 C61.79752658 90.62938168 61.79752658 90.62938168 60.96594584 91.47352284 C59.15152895 93.31152654 57.3266278 95.138736 55.50146484 96.96606445 C54.19485869 98.28492686 52.88885367 99.60438503 51.58340454 100.9243927 C48.04103192 104.50177204 44.48884971 108.06924911 40.9337039 111.63393044 C38.71214496 113.86207021 36.49248122 116.09208069 34.27342606 118.32271385 C26.52956152 126.10629292 18.77689583 133.88099678 11.01708984 141.64868164 C3.78667921 148.88696886 -3.42276858 156.14568978 -10.62307513 163.41391212 C-16.80948648 169.65662693 -23.01118969 175.8838737 -29.22479856 182.09951752 C-32.93415393 185.81071384 -36.63682256 189.52803811 -40.32387161 193.26140785 C-43.79149154 196.77166382 -47.27772596 200.26229891 -50.77911758 203.73885918 C-52.05950332 205.01665843 -53.33309855 206.30130449 -54.59922028 207.59323883 C-65.3633555 218.56348778 -65.3633555 218.56348778 -71.10702515 219.35978699 C-75.12389657 218.98854953 -77.61771893 218.16812889 -81 216 C-81 215.34 -81 214.68 -81 214 C-81.66 214 -82.32 214 -83 214 C-83 213.34 -83 212.68 -83 212 C-84.98 211.01 -84.98 211.01 -87 210 C-87 209.34 -87 208.68 -87 208 C-88.32 207.34 -89.64 206.68 -91 206 C-91 205.34 -91 204.68 -91 204 C-92.32 203.34 -93.64 202.68 -95 202 C-95 201.34 -95 200.68 -95 200 C-95.66 200 -96.32 200 -97 200 C-97 199.34 -97 198.68 -97 198 C-97.66 198 -98.32 198 -99 198 C-100.35386936 196.34997172 -101.68678142 194.6825613 -103 193 C-103.66 192.67 -104.32 192.34 -105 192 C-105 191.34 -105 190.68 -105 190 C-105.66 190 -106.32 190 -107 190 C-107 189.34 -107 188.68 -107 188 C-108.32 187.34 -109.64 186.68 -111 186 C-111 185.34 -111 184.68 -111 184 C-112.32 183.34 -113.64 182.68 -115 182 C-115 181.34 -115 180.68 -115 180 C-116.32 179.34 -117.64 178.68 -119 178 C-119 177.34 -119 176.68 -119 176 C-119.66 176 -120.32 176 -121 176 C-121 175.34 -121 174.68 -121 174 C-121.66 174 -122.32 174 -123 174 C-124.35386936 172.34997172 -125.68678142 170.6825613 -127 169 C-127.66 168.67 -128.32 168.34 -129 168 C-129 167.34 -129 166.68 -129 166 C-129.66 166 -130.32 166 -131 166 C-131 165.34 -131 164.68 -131 164 C-132.32 163.34 -133.64 162.68 -135 162 C-135 161.34 -135 160.68 -135 160 C-136.32 159.34 -137.64 158.68 -139 158 C-139 157.34 -139 156.68 -139 156 C-140.32 155.34 -141.64 154.68 -143 154 C-143 153.34 -143 152.68 -143 152 C-143.66 152 -144.32 152 -145 152 C-145 151.34 -145 150.68 -145 150 C-145.66 150 -146.32 150 -147 150 C-149.44187643 145.69252998 -149.72706186 141.86439009 -149 137 C-147.125 133.9375 -147.125 133.9375 -145 132 C-144.34 132 -143.68 132 -143 132 C-142.7525 131.4225 -142.505 130.845 -142.25 130.25 C-140.81700012 127.67060021 -139.21575324 125.93878408 -137 124 C-136.34 124 -135.68 124 -135 124 C-134.7525 123.4225 -134.505 122.845 -134.25 122.25 C-132.81700012 119.67060021 -131.21575324 117.93878408 -129 116 C-128.34 116 -127.68 116 -127 116 C-126.7525 115.4225 -126.505 114.845 -126.25 114.25 C-124.81700012 111.67060021 -123.21575324 109.93878408 -121 108 C-120.34 108 -119.68 108 -119 108 C-118.7525 107.4225 -118.505 106.845 -118.25 106.25 C-116.81700012 103.67060021 -115.21575324 101.93878408 -113 100 C-112.34 100 -111.68 100 -111 100 C-110.7525 99.4225 -110.505 98.845 -110.25 98.25 C-108.81700012 95.67060021 -107.21575324 93.93878408 -105 92 C-104.34 92 -103.68 92 -103 92 C-102.7525 91.4225 -102.505 90.845 -102.25 90.25 C-100.81700012 87.67060021 -99.21575324 85.93878408 -97 84 C-96.34 84 -95.68 84 -95 84 C-94.7525 83.4225 -94.505 82.845 -94.25 82.25 C-92.81700012 79.67060021 -91.21575324 77.93878408 -89 76 C-88.34 76 -87.68 76 -87 76 C-86.7525 75.4225 -86.505 74.845 -86.25 74.25 C-84.81700012 71.67060021 -83.21575324 69.93878408 -81 68 C-80.34 68 -79.68 68 -79 68 C-78.62875 67.13375 -78.62875 67.13375 -78.25 66.25 C-76.81700012 63.67060021 -75.21575324 61.93878408 -73 60 C-72.34 60 -71.68 60 -71 60 C-70.62875 59.13375 -70.62875 59.13375 -70.25 58.25 C-68.81700012 55.67060021 -67.21575324 53.93878408 -65 52 C-64.34 52 -63.68 52 -63 52 C-62.62875 51.13375 -62.62875 51.13375 -62.25 50.25 C-60.81700012 47.67060021 -59.21575324 45.93878408 -57 44 C-56.34 44 -55.68 44 -55 44 C-54.62875 43.13375 -54.62875 43.13375 -54.25 42.25 C-52.81700012 39.67060021 -51.21575324 37.93878408 -49 36 C-48.34 36 -47.68 36 -47 36 C-46.62875 35.13375 -46.62875 35.13375 -46.25 34.25 C-44.81700012 31.67060021 -43.21575324 29.93878408 -41 28 C-40.34 28 -39.68 28 -39 28 C-38.62875 27.13375 -38.62875 27.13375 -38.25 26.25 C-36.81700012 23.67060021 -35.21575324 21.93878408 -33 20 C-32.34 20 -31.68 20 -31 20 C-30.62875 19.13375 -30.62875 19.13375 -30.25 18.25 C-28.81700012 15.67060021 -27.21575324 13.93878408 -25 12 C-24.34 12 -23.68 12 -23 12 C-22.62875 11.13375 -22.62875 11.13375 -22.25 10.25 C-20.81700012 7.67060021 -19.21575324 5.93878408 -17 4 C-16.34 4 -15.68 4 -15 4 C-14.67 3.01 -14.34 2.02 -14 1 C-8.70467076 -2.07129096 -5.81996664 -2.58665184 0 0 Z " fill="#070707" transform="translate(205,69)"/>
<path d="M0 0 C2.83426123 4.25139185 2.34245116 7.86930589 2.3125 12.875 C2.30686035 13.85299561 2.3012207 14.83099121 2.29541016 15.83862305 C1.87321593 41.86627023 -5.26733935 66.9430547 -21 88 C-21.55816406 88.76054688 -22.11632812 89.52109375 -22.69140625 90.3046875 C-28.46487957 97.84997832 -35.20444701 104.39091035 -42 111 C-45.59898049 109.51019386 -47.55310814 107.49878127 -50.07275391 104.56054688 C-55.11027063 98.82533415 -60.43374067 93.42053384 -65.8359375 88.03125 C-66.84736418 87.01914751 -67.85864257 86.00689681 -68.86978149 84.99450684 C-70.96739878 82.8954303 -73.066776 80.79813525 -75.16748047 78.70214844 C-77.85744826 76.01792888 -80.54283074 73.32917341 -83.22694969 70.63910675 C-85.30462302 68.55782355 -87.38466735 66.47892315 -89.46544266 64.40074158 C-90.45733602 63.40951364 -91.44849166 62.41754691 -92.43888474 61.42481995 C-93.81669998 60.04446559 -95.19806472 58.66765694 -96.57958984 57.29101562 C-97.36296722 56.50843384 -98.1463446 55.72585205 -98.95346069 54.91955566 C-101.04919154 52.8483017 -101.04919154 52.8483017 -104 51 C-104 50.34 -104 49.68 -104 49 C-105.32 49 -106.64 49 -108 49 C-108 48.01 -108 47.02 -108 46 C-108.66 45.67 -109.32 45.34 -110 45 C-108.74456576 41.23369729 -107.11311137 40.40558606 -104 38 C-103.2575 37.2575 -102.515 36.515 -101.75 35.75 C-76.98695727 10.98695727 -35.61987568 -7.90441061 0 0 Z " fill="#090909" transform="translate(318,24)"/>
<path d="M0 0 C1.1446875 -0.01675781 2.289375 -0.03351563 3.46875 -0.05078125 C6.5 0.3125 6.5 0.3125 8.16816711 1.46394348 C10.06739175 4.10002802 9.86055515 6.02275123 9.84057617 9.25268555 C9.84034958 10.47372482 9.84012299 11.6947641 9.83988953 12.95280457 C9.82440567 14.27162125 9.80892181 15.59043793 9.79296875 16.94921875 C9.78737243 18.31256138 9.7831025 19.67591004 9.78010559 21.03926086 C9.76865949 24.62493592 9.73919486 28.21024554 9.70599365 31.79577637 C9.67528739 35.4555975 9.6615991 39.11547777 9.64648438 42.77539062 C9.61432449 49.95459356 9.56313153 57.13349554 9.5 64.3125 C10.18238235 64.30361755 10.86476471 64.29473511 11.56782532 64.2855835 C18.65637859 64.19723607 25.74477605 64.13681795 32.83374023 64.09277344 C35.48094025 64.07263152 38.12809563 64.04531645 40.77514648 64.01074219 C44.57546995 63.96233949 48.37520631 63.9395567 52.17578125 63.921875 C53.95714226 63.89090729 53.95714226 63.89090729 55.77449036 63.85931396 C57.4258625 63.85886078 57.4258625 63.85886078 59.1105957 63.85839844 C60.56620659 63.84507477 60.56620659 63.84507477 62.05122375 63.83148193 C64.5 64.3125 64.5 64.3125 66.31193542 66.20440674 C68.33894351 69.80111534 68.03592607 73.303773 67.5 77.3125 C66.1875 80.3125 66.1875 80.3125 64.5 82.3125 C61.49633486 83.31372171 59.52260407 83.43362011 56.38598633 83.42602539 C55.34513382 83.42594986 54.30428131 83.42587433 53.23188782 83.42579651 C52.10993515 83.42063522 50.98798248 83.41547394 49.83203125 83.41015625 C48.68208176 83.4087413 47.53213226 83.40732635 46.34733582 83.40586853 C42.66903092 83.40026429 38.99078655 83.38771104 35.3125 83.375 C32.82096442 83.36998555 30.32942789 83.36542255 27.83789062 83.36132812 C21.72523971 83.35029347 15.61262418 83.33355118 9.5 83.3125 C9.50999275 84.43336502 9.50999275 84.43336502 9.52018738 85.57687378 C9.58023762 92.61053774 9.62594321 99.64411328 9.65543652 106.67796135 C9.67110901 110.2943704 9.69237553 113.91056808 9.72631836 117.52685547 C9.75885631 121.01519988 9.77684108 124.50334068 9.78463173 127.9918251 C9.79289269 129.97393769 9.81632087 131.95596809 9.83988953 133.93795776 C9.84011612 135.13905182 9.84034271 136.34014587 9.84057617 137.57763672 C9.85056892 139.16981522 9.85056892 139.16981522 9.86076355 140.79415894 C9.74171158 141.62521149 9.62265961 142.45626404 9.5 143.3125 C5.80905532 145.77312979 3.82955805 145.58066777 -0.5625 145.5625 C-1.81160156 145.56765625 -3.06070313 145.5728125 -4.34765625 145.578125 C-7.5 145.3125 -7.5 145.3125 -9.5 143.3125 C-9.74050903 140.79415894 -9.74050903 140.79415894 -9.72705078 137.57763672 C-9.72689972 136.37654266 -9.72674866 135.17544861 -9.72659302 133.93795776 C-9.71627045 132.63585358 -9.70594788 131.33374939 -9.6953125 129.9921875 C-9.69158276 128.64983327 -9.68873561 127.30747633 -9.68673706 125.96511841 C-9.67909744 122.430486 -9.6594463 118.89601772 -9.6373291 115.3614502 C-9.61687765 111.7553123 -9.60773685 108.14914791 -9.59765625 104.54296875 C-9.5762006 97.46607865 -9.54206079 90.38930003 -9.5 83.3125 C-10.15288498 83.32360306 -10.80576996 83.33470612 -11.47843933 83.34614563 C-18.27528195 83.45678563 -25.07186868 83.53218702 -31.86938477 83.5871582 C-34.4059488 83.61229839 -36.94244042 83.64641537 -39.47875977 83.68969727 C-43.12534451 83.75036661 -46.77097132 83.77871574 -50.41796875 83.80078125 C-51.55147263 83.82658768 -52.6849765 83.8523941 -53.85282898 83.87898254 C-61.72769016 83.88178628 -61.72769016 83.88178628 -65.71801758 80.94042969 C-67.66912478 78.06308786 -68.1275188 76.68769432 -68 73.25 C-67.9896875 72.41339844 -67.979375 71.57679688 -67.96875 70.71484375 C-67.39440016 67.77130083 -66.57807303 66.47184767 -64.5 64.3125 C-62.05122375 63.83148193 -62.05122375 63.83148193 -59.1105957 63.85839844 C-58.00968094 63.85870056 -56.90876617 63.85900269 -55.77449036 63.85931396 C-54.58691635 63.87995911 -53.39934235 63.90060425 -52.17578125 63.921875 C-50.95924362 63.92753479 -49.74270599 63.93319458 -48.48930359 63.93902588 C-44.59663856 63.96144966 -40.7048877 64.01165987 -36.8125 64.0625 C-34.17644557 64.08255711 -31.54037673 64.10080925 -28.90429688 64.1171875 C-22.43588502 64.16133428 -15.96800781 64.22830713 -9.5 64.3125 C-9.50666183 63.5402005 -9.51332367 62.767901 -9.52018738 61.97219849 C-9.58023497 54.70306534 -9.62594178 47.434052 -9.65543652 40.16473579 C-9.67110972 36.42726204 -9.69237761 32.68999277 -9.72631836 28.95263672 C-9.75885367 25.3475836 -9.77684054 21.74272748 -9.78463173 18.13753891 C-9.79018581 16.76036349 -9.80103135 15.38319915 -9.81719017 14.00610733 C-9.83888435 12.08116369 -9.84022471 10.15602288 -9.84057617 8.23095703 C-9.84723801 7.13397491 -9.85389984 6.0369928 -9.86076355 4.9067688 C-9.74171158 4.0506601 -9.62265961 3.19455139 -9.5 2.3125 C-5.94223788 -0.05934142 -4.21979393 0.01425606 0 0 Z " fill="#000000" transform="translate(280.5,167.6875)"/>
<path d="M0 0 C3.22216628 1.27911415 5.04847836 3.37116987 7.47241211 5.83691406 C7.96540298 6.33414978 8.45839386 6.8313855 8.96632385 7.34368896 C10.5393536 8.93347012 12.10165497 10.53333618 13.66381836 12.13378906 C14.71064623 13.19567571 15.75816546 14.25688126 16.80639648 15.31738281 C18.74557897 17.28099645 20.6797036 19.24913228 22.61083984 21.22070312 C25.13452312 23.79032295 27.6761386 26.34048997 30.22631836 28.88378906 C35.07006836 33.72753906 39.91381836 38.57128906 44.75756836 43.41503906 C45.92715088 44.58401733 45.92715088 44.58401733 47.12036133 45.77661133 C48.37105839 47.02803335 49.62055258 48.28066246 50.86743164 49.53588867 C52.56644875 51.24577701 54.24820147 52.90202499 56.10131836 54.44628906 C57.22631836 55.88378906 57.22631836 55.88378906 57.22631836 57.75878906 C55.79364164 60.80322708 53.73526514 62.68081141 51.22631836 64.88378906 C50.56631836 64.88378906 49.90631836 64.88378906 49.22631836 64.88378906 C47.46169153 67.97188602 47.22631836 69.11691042 47.22631836 72.88378906 C48.15915132 75.08446327 48.15915132 75.08446327 49.22631836 76.88378906 C49.88631836 76.88378906 50.54631836 76.88378906 51.22631836 76.88378906 C51.22631836 77.54378906 51.22631836 78.20378906 51.22631836 78.88378906 C52.71131836 79.37878906 52.71131836 79.37878906 54.22631836 79.88378906 C55.22631836 81.63378906 55.22631836 81.63378906 55.22631836 83.88378906 C53.28881836 86.13378906 53.28881836 86.13378906 51.88647461 87.37988281 C50.12686518 88.92960481 50.12686518 88.92960481 48.28491211 90.98144531 C47.60557617 91.71234375 46.92624023 92.44324219 46.22631836 93.19628906 C45.58694336 93.89367187 44.94756836 94.59105469 44.28881836 95.30957031 C41.67356282 97.30568392 40.45728451 97.23221526 37.22631836 96.88378906 C35.41133499 95.69242477 35.41133499 95.69242477 33.70855713 93.98748779 C33.05523911 93.34537857 32.40192108 92.70326935 31.72880554 92.04170227 C31.0283461 91.32797958 30.32788666 90.6142569 29.60620117 89.87890625 C28.8560524 89.13430649 28.10590363 88.38970673 27.33302307 87.62254333 C24.85270466 85.15405099 22.39092331 82.66793106 19.92944336 80.18066406 C18.21350186 78.46301224 16.49667249 76.74624698 14.7789917 75.03033447 C11.18014635 71.42983417 7.58999483 67.82095077 4.00610352 64.20556641 C-0.59288869 59.56689702 -5.20933135 54.94608541 -9.83195114 50.33097458 C-13.3790357 46.78695659 -16.9184878 43.23539806 -20.45548248 39.68131256 C-22.15524657 37.974507 -23.85698077 36.26966112 -25.56069183 34.56679535 C-27.93839053 32.18730308 -30.30606686 29.79828043 -32.67114258 27.40625 C-33.37969894 26.70062424 -34.08825531 25.99499847 -34.81828308 25.26799011 C-35.46032181 24.61460159 -36.10236053 23.96121307 -36.76385498 23.2880249 C-37.32426357 22.7238876 -37.88467216 22.15975029 -38.46206284 21.57851791 C-39.95845282 19.64504817 -40.5325608 18.31526 -40.77368164 15.88378906 C-38.83618164 13.69628906 -38.83618164 13.69628906 -37.45336914 12.45410156 C-35.30770374 10.44815391 -33.40235195 8.27496638 -31.46118164 6.07128906 C-30.76379883 5.28109375 -30.06641602 4.49089844 -29.34790039 3.67675781 C-28.8284082 3.08507812 -28.30891602 2.49339844 -27.77368164 1.88378906 C-24.81193041 2.49656518 -23.39309381 3.13751428 -20.77368164 4.88378906 C-20.77368164 5.54378906 -20.77368164 6.20378906 -20.77368164 6.88378906 C-19.90743164 7.31691406 -19.90743164 7.31691406 -19.02368164 7.75878906 C-16.94034831 8.80045573 -14.85701497 9.8421224 -12.77368164 10.88378906 C-12.15493164 10.22378906 -11.53618164 9.56378906 -10.89868164 8.88378906 C-8.77368164 6.88378906 -8.77368164 6.88378906 -6.77368164 6.88378906 C-6.50555664 6.28566406 -6.23743164 5.68753906 -5.96118164 5.07128906 C-3.09800689 -0.20298022 -3.09800689 -0.20298022 0 0 Z " fill="#0F0F0F" transform="translate(60.773681640625,226.1162109375)"/>
<path d="M0 0 C0 3 0 3 -1.375 4.6875 C-3 6 -3 6 -5 6 C-4.67 6.99 -4.34 7.98 -4 9 C-4.66 9.66 -5.32 10.32 -6 11 C-3.69 13.64 -1.38 16.28 1 19 C0.67 19.66 0.34 20.32 0 21 C-1.32162881 19.75965588 -2.63200453 18.50731374 -3.9375 17.25 C-4.66839844 16.55390625 -5.39929688 15.8578125 -6.15234375 15.140625 C-8.01851832 12.97854538 -8.83576696 11.83888535 -9 9 C-6.8125 6.5 -6.8125 6.5 -4 4 C-3.236875 3.236875 -2.47375 2.47375 -1.6875 1.6875 C-1.130625 1.130625 -0.57375 0.57375 0 0 Z " fill="#7C7C7C" transform="translate(29,233)"/>
<path d="M0 0 C-2.33214148 1.20628008 -4.49642139 2.1654738 -7 3 C-7 3.99 -7 4.98 -7 6 C-8.216875 5.79375 -9.43375 5.5875 -10.6875 5.375 C-14.42631546 4.88704172 -16.53792178 5.46129857 -20 7 C-22.140625 6.5625 -22.140625 6.5625 -24 6 C-21.12854755 4.98867084 -18.25354777 3.99075598 -15.375 3 C-14.56675781 2.71382812 -13.75851562 2.42765625 -12.92578125 2.1328125 C-8.46885356 0.61093475 -4.77962528 -0.37123303 0 0 Z " fill="#828282" transform="translate(282,26)"/>
<path d="M0 0 C2.31 0.33 4.62 0.66 7 1 C7 1.33 7 1.66 7 2 C12.7974423 2.24428343 12.7974423 2.24428343 18 0 C17.0625 1.9375 17.0625 1.9375 15 4 C10.37184339 5.37937217 6.92219028 5.37211187 2.4375 3.5625 C1.633125 3.046875 0.82875 2.53125 0 2 C0 1.34 0 0.68 0 0 Z " fill="#7D7D7D" transform="translate(124,283)"/>
<path d="M0 0 C0.33 0.66 0.66 1.32 1 2 C-1.31 2.33 -3.62 2.66 -6 3 C-6 2.34 -6 1.68 -6 1 C-10.60742865 2.21044132 -10.60742865 2.21044132 -15 4 C-14 1 -14 1 -10.875 -0.8125 C-6.80513726 -2.426991 -4.02902702 -1.69219135 0 0 Z " fill="#7B7B7B" transform="translate(205,69)"/>
<path d="M0 0 C0.66 0.33 1.32 0.66 2 1 C1.6875 2.875 1.6875 2.875 1 5 C0.01 5.66 -0.98 6.32 -2 7 C-2.36362818 9.20725073 -2.36362818 9.20725073 -2.1875 11.625 C-2.16042969 12.44226563 -2.13335937 13.25953125 -2.10546875 14.1015625 C-2.07066406 14.72804687 -2.03585938 15.35453125 -2 16 C-4.38224928 13.61775072 -4.32017149 12.9497963 -4.375 9.6875 C-4.30419139 5.29736646 -3.21299042 3.11258447 0 0 Z " fill="#7E7E7E" transform="translate(60,201)"/>
<path d="M0 0 C1.65 0 3.3 0 5 0 C5.33 1.98 5.66 3.96 6 6 C3.97945196 4.35830472 1.97956942 2.69088222 0 1 C0 0.67 0 0.34 0 0 Z " fill="#454545" transform="translate(262,121)"/>
<path d="M0 0 C0.99 0.495 0.99 0.495 2 1 C1.01 1.495 1.01 1.495 0 2 C0 1.34 0 0.68 0 0 Z " fill="#E9E9E9" transform="translate(79,178)"/>
<path d="M0 0 C0.99 0.495 0.99 0.495 2 1 C1.01 1.495 1.01 1.495 0 2 C0 1.34 0 0.68 0 0 Z " fill="#E9E9E9" transform="translate(103,154)"/>
<path d="M0 0 C0.99 0.495 0.99 0.495 2 1 C1.01 1.495 1.01 1.495 0 2 C0 1.34 0 0.68 0 0 Z " fill="#E9E9E9" transform="translate(127,130)"/>
<path d="M0 0 C0.99 0.495 0.99 0.495 2 1 C1.01 1.495 1.01 1.495 0 2 C0 1.34 0 0.68 0 0 Z " fill="#E9E9E9" transform="translate(151,106)"/>
<path d="M0 0 C0.99 0.495 0.99 0.495 2 1 C1.01 1.495 1.01 1.495 0 2 C0 1.34 0 0.68 0 0 Z " fill="#E9E9E9" transform="translate(175,82)"/>
<path d="M0 0 C3 1 3 1 3 1 Z " fill="#E7E7E7" transform="translate(310,19)"/>
<path d="" fill="#E8E8E8" transform="translate(0,0)"/>
<path d="" fill="#E1E1E1" transform="translate(0,0)"/>
<path d="" fill="#E7E7E7" transform="translate(0,0)"/>
<path d="" fill="#E6E6E6" transform="translate(0,0)"/>
<path d="" fill="#E5E5E5" transform="translate(0,0)"/>
<path d="M0 0 C2 1 2 1 2 1 Z " fill="#E9E9E9" transform="translate(276,136)"/>
<path d="" fill="#E9E9E9" transform="translate(0,0)"/>
<path d="" fill="#E6E6E6" transform="translate(0,0)"/>
<path d="M0 0 C2 1 2 1 2 1 Z " fill="#E6E6E6" transform="translate(262,28)"/>
<path d="" fill="#E8E8E8" transform="translate(0,0)"/>
<path d="" fill="#E9E9E9" transform="translate(0,0)"/>
<path d="" fill="#E2E2E2" transform="translate(0,0)"/>
<path d="" fill="#E8E8E8" transform="translate(0,0)"/>
<path d="" fill="#E5E5E5" transform="translate(0,0)"/>
<path d="" fill="#EAEAEA" transform="translate(0,0)"/>
<path d="" fill="#EAEAEA" transform="translate(0,0)"/>
<path d="" fill="#E8E8E8" transform="translate(0,0)"/>
<path d="" fill="#E9E9E9" transform="translate(0,0)"/>
<path d="" fill="#EAEAEA" transform="translate(0,0)"/>
<path d="" fill="#E8E8E8" transform="translate(0,0)"/>
<path d="" fill="#E9E9E9" transform="translate(0,0)"/>
<path d="" fill="#E9E9E9" transform="translate(0,0)"/>
<path d="" fill="#E8E8E8" transform="translate(0,0)"/>
<path d="" fill="#E9E9E9" transform="translate(0,0)"/>
<path d="" fill="#E9E9E9" transform="translate(0,0)"/>
<path d="" fill="#EAEAEA" transform="translate(0,0)"/>
<path d="" fill="#EAEAEA" transform="translate(0,0)"/>
<path d="" fill="#EAEAEA" transform="translate(0,0)"/>
<path d="" fill="#E9E9E9" transform="translate(0,0)"/>
<path d="" fill="#E8E8E8" transform="translate(0,0)"/>
<path d="" fill="#E9E9E9" transform="translate(0,0)"/>
<path d="" fill="#E7E7E7" transform="translate(0,0)"/>
<path d="" fill="#E7E7E7" transform="translate(0,0)"/>
<path d="" fill="#EAEAEA" transform="translate(0,0)"/>
<path d="" fill="#EAEAEA" transform="translate(0,0)"/>
<path d="" fill="#E9E9E9" transform="translate(0,0)"/>
<path d="" fill="#EAEAEA" transform="translate(0,0)"/>
<path d="" fill="#E8E8E8" transform="translate(0,0)"/>
<path d="" fill="#E9E9E9" transform="translate(0,0)"/>
<path d="" fill="#E8E8E8" transform="translate(0,0)"/>
<path d="" fill="#E9E9E9" transform="translate(0,0)"/>
<path d="" fill="#EAEAEA" transform="translate(0,0)"/>
<path d="" fill="#E8E8E8" transform="translate(0,0)"/>
<path d="" fill="#E8E8E8" transform="translate(0,0)"/>
<path d="" fill="#E9E9E9" transform="translate(0,0)"/>
<path d="" fill="#E8E8E8" transform="translate(0,0)"/>
<path d="" fill="#E9E9E9" transform="translate(0,0)"/>
<path d="" fill="#EAEAEA" transform="translate(0,0)"/>
<path d="" fill="#E8E8E8" transform="translate(0,0)"/>
<path d="" fill="#E9E9E9" transform="translate(0,0)"/>
<path d="" fill="#E9E9E9" transform="translate(0,0)"/>
<path d="" fill="#E8E8E8" transform="translate(0,0)"/>
<path d="" fill="#E9E9E9" transform="translate(0,0)"/>
<path d="" fill="#EAEAEA" transform="translate(0,0)"/>
<path d="" fill="#EAEAEA" transform="translate(0,0)"/>
<path d="" fill="#DFDFDF" transform="translate(0,0)"/>
<path d="" fill="#E4E4E4" transform="translate(0,0)"/>
<path d="" fill="#EAEAEA" transform="translate(0,0)"/>
<path d="" fill="#EAEAEA" transform="translate(0,0)"/>
<path d="" fill="#EAEAEA" transform="translate(0,0)"/>
<path d="" fill="#E8E8E8" transform="translate(0,0)"/>
<path d="" fill="#E9E9E9" transform="translate(0,0)"/>
<path d="" fill="#E9E9E9" transform="translate(0,0)"/>
<path d="" fill="#E9E9E9" transform="translate(0,0)"/>
<path d="" fill="#EAEAEA" transform="translate(0,0)"/>
<path d="" fill="#E9E9E9" transform="translate(0,0)"/>
<path d="" fill="#E9E9E9" transform="translate(0,0)"/>
<path d="" fill="#EAEAEA" transform="translate(0,0)"/>
</svg>
