<?xml version="1.0" encoding="UTF-8"?>
<svg version="1.1" xmlns="http://www.w3.org/2000/svg" width="524" height="360">
<path d="M0 0 C2.64 0 5.28 0 8 0 C9.32 2.97 10.64 5.94 12 9 C47.97 9.33 83.94 9.66 121 10 C121.33 11.32 121.66 12.64 122 14 C123.0859933 13.9922694 123.0859933 13.9922694 124.19392586 13.98438263 C142.20237025 13.85636458 160.2108327 13.731204 178.21931648 13.60884857 C186.92974918 13.54960504 195.64017447 13.48954013 204.35058594 13.42724609 C251.23450312 13.09251724 298.11486574 12.92535299 345 13 C345.11601562 12.35675781 345.23203125 11.71351562 345.3515625 11.05078125 C345.56554687 10.37402344 345.77953125 9.69726562 346 9 C347.175625 8.5978125 347.175625 8.5978125 348.375 8.1875 C351.38615573 6.8253105 351.58959747 6.29475294 352.8125 3.375 C353.204375 2.26125 353.59625 1.1475 354 0 C360.66049287 -0.55504107 365.41310943 0.22671879 371 4 C374.06060157 6.66988648 375.71646129 8.14938387 377 12 C378.13179688 12.04898438 379.26359375 12.09796875 380.4296875 12.1484375 C381.91148339 12.22346514 383.393253 12.29901297 384.875 12.375 C385.62136719 12.4059375 386.36773437 12.436875 387.13671875 12.46875 C392.7734375 12.7734375 392.7734375 12.7734375 395 15 C397.05816212 25.58106422 397.27860671 37.01658434 393 47 C388.05 47 383.1 47 378 47 C378.14308594 50.30837891 378.14308594 50.30837891 378.2890625 53.68359375 C378.37455545 55.8481305 378.45601837 58.01278462 378.53710938 60.17749023 C378.59508307 61.66821942 378.65716727 63.1587952 378.72363281 64.64916992 C379.58532105 84.12201843 379.58532105 84.12201843 375 91 C372.38322508 91.33792536 369.99063608 91.48886089 367.3671875 91.51171875 C366.61535187 91.52966995 365.86351624 91.54762115 365.08889771 91.56611633 C362.68432244 91.62035781 360.27994715 91.65415792 357.875 91.6875 C356.24606583 91.72066102 354.6171581 91.75514955 352.98828125 91.79101562 C348.99233154 91.87609162 344.99644254 91.94283578 341 92 C340.67 93.65 340.34 95.3 340 97 C339.18156616 97.01030746 338.36313232 97.02061493 337.51989746 97.03123474 C329.64197009 97.13098595 321.76408826 97.23368012 313.8862381 97.33933926 C309.84035482 97.39350869 305.79446465 97.44670504 301.74853516 97.49731445 C285.59812057 97.70010601 269.44913936 97.93015751 253.30403137 98.40391731 C251.29353168 98.46287973 249.28293591 98.51853754 247.27233887 98.57408142 C231.58279843 99.07060798 215.13604175 100.86908494 203.1875 112.25 C200.85710129 114.85686693 200.85710129 114.85686693 200 118 C199.34 118 198.68 118 198 118 C197.5683252 119.08800903 197.5683252 119.08800903 197.12792969 120.19799805 C196.43363001 121.9227767 195.71965752 123.63997307 194.97363281 125.34301758 C191.7012341 133.32438238 191.14099247 141.17832278 190.75 149.6875 C190.67341362 151.0827676 190.59529805 152.47795213 190.515625 153.87304688 C190.32876566 157.24819363 190.15724599 160.62336613 190 164 C183.53695784 167.05025395 177.00738575 169.4402569 170.1875 171.5625 C168.73609619 172.01810303 168.73609619 172.01810303 167.25537109 172.48291016 C142.29141834 180.2424864 118.50824212 181.34986208 92.984375 175.09375 C85.15372052 173.23181878 78.35881402 173.75244827 71 177 C61.59863045 183.09557065 58.67844741 192.13876235 55.94140625 202.5078125 C55.53486061 204.01068314 55.53486061 204.01068314 55.12010193 205.54391479 C54.5489052 207.66246256 53.98184643 209.78212985 53.41870117 211.90283203 C52.57726517 215.06943379 51.72245881 218.23217173 50.86523438 221.39453125 C48.13321518 231.5346685 45.52381716 241.69880375 43.15234375 251.9296875 C42.84509117 253.23379074 42.84509117 253.23379074 42.53163147 254.5642395 C40.51354524 263.47592101 39.87405744 272.28540148 39.75390625 281.40234375 C39.72102612 283.13346971 39.68781369 284.86458938 39.65429688 286.59570312 C39.60661542 289.28389955 39.5620011 291.97206044 39.52319336 294.66040039 C39.48360508 297.28294595 39.43210603 299.90504398 39.37890625 302.52734375 C39.3704921 303.33356674 39.36207794 304.13978973 39.35340881 304.97044373 C39.26789798 308.81542974 39.18113222 310.72830166 37 314 C34.90771484 314.38818359 34.90771484 314.38818359 32.2109375 314.3984375 C30.62116089 314.40750122 30.62116089 314.40750122 28.99926758 314.41674805 C27.80325928 314.40297119 26.60725098 314.38919434 25.375 314.375 C24.11131592 314.36702393 22.84763184 314.35904785 21.5456543 314.35083008 C6.95747851 314.18738887 -7.6191331 313.41595354 -22.1875 312.6875 C-24.0466806 312.59949127 -24.0466806 312.59949127 -25.94342041 312.50970459 C-29.53993993 312.33623443 -33.13512123 312.14534754 -36.73046875 311.94921875 C-37.80357803 311.89905106 -38.87668732 311.84888336 -39.98231506 311.79719543 C-46.25250519 311.431149 -51.69905935 310.42338933 -57.63447571 308.32991028 C-60.07758388 307.72370267 -60.07758388 307.72370267 -62.07316589 309.36698914 C-63.02694878 310.17532951 -63.02694878 310.17532951 -64 311 C-70.11706281 312.40391606 -73.5522786 312.15967841 -79 309 C-80.25 307.1875 -80.25 307.1875 -81 305 C-83.10834923 300.2763545 -83.10834923 300.2763545 -87 297 C-87.73185453 294.55747314 -88.26128297 292.31045918 -88.6875 289.8125 C-88.8127002 289.09634521 -88.93790039 288.38019043 -89.06689453 287.64233398 C-93.38131197 260.94871044 -83.69878813 238.1022295 -73.60742188 214.00048828 C-73.14142578 212.87884277 -72.67542969 211.75719727 -72.1953125 210.6015625 C-71.77266113 209.59432129 -71.35000977 208.58708008 -70.91455078 207.54931641 C-69.83116386 204.98076772 -69.83116386 204.98076772 -70 202 C-69.34 202 -68.68 202 -68 202 C-67.86978455 201.26732407 -67.73956909 200.53464813 -67.60540771 199.7797699 C-67.04383122 197.20125397 -66.30273353 194.96386969 -65.31347656 192.52368164 C-64.96931702 191.66831314 -64.62515747 190.81294464 -64.27056885 189.93165588 C-63.89768738 189.017061 -63.52480591 188.10246613 -63.140625 187.16015625 C-62.75436951 186.2016124 -62.36811401 185.24306854 -61.97015381 184.25547791 C-60.73420225 181.1894774 -59.49258278 178.1258184 -58.25 175.0625 C-44.97173035 147.85946988 -44.97173035 147.85946988 -45.5625 119.125 C-49.96858819 110.86550367 -55.92780039 104.78703477 -65 102 C-68.65437218 101.39987108 -72.32661298 101.02513681 -76.02294922 100.80712891 C-80.87776273 100.45293423 -83.63714128 99.5766821 -87 96 C-87.76650113 91.78424376 -87.552919 89.83891158 -85.1875 86.25 C-81.43925734 83.60418165 -78.19667277 82.92453875 -73.7890625 81.8671875 C-66.99076335 79.75343062 -62.3950724 75.13697995 -59 69 C-57.18551718 65.18661633 -55.60824375 61.30386678 -54.0625 57.375 C-53.62615234 56.35792969 -53.18980469 55.34085938 -52.74023438 54.29296875 C-49.6206002 46.31439058 -50.09841556 40.9894214 -53 33 C-55.65116279 25.46511628 -55.65116279 25.46511628 -55 21 C-52.9375 17.625 -52.9375 17.625 -50 15 C-46.17983047 14.44433898 -43.73638745 14.72785681 -40.125 16.0625 C-32.50726082 18.34782175 -25.80503235 15.45287053 -19 12 C-17 11 -17 11 -14.35546875 11.03515625 C-10.98968424 11.06420741 -8.24011601 10.94053967 -5 10 C-2.46459471 6.94918378 -1.17544642 3.76552893 0 0 Z M79.65234375 119.08203125 C77.02580016 122.1308088 75.38469309 125.23740464 74 129 C73.76410156 129.63808594 73.52820313 130.27617187 73.28515625 130.93359375 C71.01991518 138.29192584 71.96377655 145.27787223 75.0625 152.25 C79.61040728 160.54018526 87.21770333 164.29031067 96 167 C103.905003 169.03531112 111.83983322 170.59444954 120 171 C121.53140625 171.07927734 121.53140625 171.07927734 123.09375 171.16015625 C139.78495896 171.60040603 159.31998866 168.97431862 172.7421875 158.33203125 C174.22885364 157.06298389 174.22885364 157.06298389 174 155 C174.66 155 175.32 155 176 155 C180.4403656 147.4275908 183.82673118 140.88512105 182 132 C178.82976645 122.65552883 173.5010794 116.38946548 165.39599609 110.91699219 C161.82362253 109.5497785 158.28497292 109.75535301 154.515625 109.8046875 C153.70003113 109.8075174 152.88443726 109.81034729 152.04412842 109.81326294 C149.44593472 109.82443442 146.84808905 109.84953325 144.25 109.875 C142.48568207 109.88503373 140.72135872 109.89415889 138.95703125 109.90234375 C134.63788727 109.92436381 130.31900259 109.95887267 126 110 C125.50351931 111.74748387 125.01236111 113.49648047 124.5234375 115.24609375 C124.11230713 116.70680298 124.11230713 116.70680298 123.69287109 118.19702148 C121.62043963 126.58094876 123.41141013 134.39383273 127.59375 141.8359375 C131.76696827 148.07866154 136.09285089 151.8778617 142.6796875 155.46484375 C145.17065448 157.11290776 145.96388676 158.24298604 147 161 C146 162 146 162 144.21484375 162.01953125 C137.92057856 161.44732532 131.95964493 160.0173941 127.3984375 155.3671875 C126.08760249 153.76697592 126.08760249 153.76697592 124 154 C124 153.34 124 152.68 124 152 C122.9790625 151.0409375 122.9790625 151.0409375 121.9375 150.0625 C114.062303 142.47897696 109.15237846 132.62375845 108.625 121.8125 C108.36111912 117.71458511 108.19637155 116.2861414 105.8125 112.8125 C96.81274196 107.01265593 86.72898697 112.29482129 79.65234375 119.08203125 Z " fill="#040404" transform="translate(109,23)"/>
<path d="M0 0 C0.67675781 -0.01998047 1.35351562 -0.03996094 2.05078125 -0.06054688 C6.98690536 -0.0556789 6.98690536 -0.0556789 9.19551086 2.06719971 C10.89799204 5.16066481 10.86107443 7.3326983 10.84057617 10.85839844 C10.84034958 12.15944519 10.84012299 13.46049194 10.83988953 14.80096436 C10.82457067 16.21627142 10.8089227 17.63157495 10.79296875 19.046875 C10.78737107 20.49846966 10.78310178 21.95007 10.78010559 23.40167236 C10.7686702 27.21583804 10.73921465 31.02965911 10.70599365 34.84368896 C10.66985834 39.42333353 10.65612535 44.00309354 10.63863373 48.58283997 C10.60957608 55.53463273 10.55208086 62.48566989 10.5 69.4375 C30.3 69.4375 50.1 69.4375 70.5 69.4375 C74.11764706 76.67279412 74.11764706 76.67279412 73.5 82.4375 C72.1875 85.8125 72.1875 85.8125 70.5 88.4375 C67.37167111 89.4802763 65.20810913 89.55826845 61.92700195 89.55102539 C60.78604568 89.55094986 59.64508942 89.55087433 58.46955872 89.55079651 C56.62257637 89.54305458 56.62257637 89.54305458 54.73828125 89.53515625 C53.47735153 89.5337413 52.21642181 89.53232635 50.9172821 89.53086853 C47.56848291 89.52621575 44.21975189 89.51723342 40.87097168 89.50616455 C37.45239857 89.49592687 34.03381841 89.49136586 30.61523438 89.48632812 C23.91013739 89.47529099 17.20507263 89.45854686 10.5 89.4375 C10.50999275 90.63020256 10.50999275 90.63020256 10.52018738 91.84700012 C10.58027241 99.3365646 10.62596095 106.82601239 10.65543652 114.31575489 C10.6710996 118.16641831 10.69234923 122.01688275 10.72631836 125.86743164 C10.75888946 129.58271429 10.77684817 133.29780544 10.78463173 137.01321983 C10.79017934 138.43143415 10.80101244 139.84963787 10.81719017 141.26777077 C10.8389319 143.25238467 10.84022513 145.23719086 10.84057617 147.22192383 C10.85056892 148.91736076 10.85056892 148.91736076 10.86076355 150.64704895 C10.5 153.4375 10.5 153.4375 9.19551086 155.30326843 C6.37491648 157.19013761 3.27065653 156.82787277 0 156.75 C-0.67675781 156.75322266 -1.35351562 156.75644531 -2.05078125 156.75976562 C-5.73473014 156.71980168 -7.36207954 156.52944697 -10.5 154.4375 C-10.86076355 151.7293396 -10.86076355 151.7293396 -10.84057617 148.24365234 C-10.84023628 146.29185562 -10.84023628 146.29185562 -10.83988953 144.30062866 C-10.82456837 142.87489481 -10.80892037 141.44916444 -10.79296875 140.0234375 C-10.78737443 138.56898434 -10.78310356 137.11452553 -10.78010559 135.6600647 C-10.76864374 131.82943145 -10.73916547 127.99913872 -10.70599365 124.16864014 C-10.67532138 120.26091112 -10.66160637 116.35312716 -10.64648438 112.4453125 C-10.61429667 104.77588632 -10.56308463 97.10674085 -10.5 89.4375 C-11.55449593 89.44749275 -11.55449593 89.44749275 -12.6302948 89.45768738 C-19.26567501 89.51787778 -25.90097868 89.56351454 -32.53657055 89.59293652 C-35.94775761 89.60857139 -39.35871849 89.62976914 -42.76977539 89.66381836 C-46.69414534 89.70274491 -50.61842471 89.7172273 -54.54296875 89.73046875 C-55.76396774 89.74595261 -56.98496674 89.76143646 -58.2429657 89.77738953 C-59.3837709 89.77761612 -60.52457611 89.77784271 -61.69995117 89.77807617 C-62.70144699 89.78473801 -63.70294281 89.79139984 -64.73478699 89.79826355 C-68.01061133 89.37088309 -69.87645471 88.42449724 -72.5 86.4375 C-73.40939041 83.70932878 -73.69209074 81.89040223 -73.75 79.0625 C-73.78867187 77.93714844 -73.78867187 77.93714844 -73.828125 76.7890625 C-73.39095988 73.65604582 -72.43430145 71.94158972 -70.5 69.4375 C-67.86140442 68.83622742 -67.86140442 68.83622742 -64.65161133 68.86987305 C-63.4505928 68.8702507 -62.24957428 68.87062836 -61.01216125 68.87101746 C-59.71521835 68.89682388 -58.41827545 68.92263031 -57.08203125 68.94921875 C-55.74111752 68.95854604 -54.40018674 68.96566256 -53.05924988 68.97065735 C-49.53244862 68.98973469 -46.00667949 69.03883898 -42.48028564 69.09417725 C-38.88087935 69.14535556 -35.28130601 69.16816818 -31.68164062 69.19335938 C-24.62067187 69.24695907 -17.56040337 69.33227896 -10.5 69.4375 C-10.50666183 68.61730881 -10.51332367 67.79711761 -10.52018738 66.95207214 C-10.58026878 59.22704867 -10.62595913 51.50213829 -10.65543652 43.77694225 C-10.67110056 39.80521373 -10.69235199 35.83367807 -10.72631836 31.86206055 C-10.75888596 28.03006911 -10.77684745 24.19826332 -10.78463173 20.36614418 C-10.79017996 18.90327341 -10.80101425 17.44041293 -10.81719017 15.97762108 C-10.83893079 13.93041304 -10.84196847 11.8839746 -10.84057617 9.83666992 C-10.84723801 8.67084885 -10.85389984 7.50502777 -10.86076355 6.30387878 C-10.5 3.4375 -10.5 3.4375 -9.19551086 1.56465149 C-6.36917358 -0.31425731 -3.27611484 -0.0343212 0 0 Z " fill="#000000" transform="translate(392.5,148.5625)"/>
<path d="M0 0 C1.051875 0.12375 2.10375 0.2475 3.1875 0.375 C3.1875 0.705 3.1875 1.035 3.1875 1.375 C1.2075 1.705 -0.7725 2.035 -2.8125 2.375 C-2.8125 3.365 -2.8125 4.355 -2.8125 5.375 C-0.5025 5.705 1.8075 6.035 4.1875 6.375 C4.3125 8.75 4.3125 8.75 4.1875 11.375 C3.5275 12.035 2.8675 12.695 2.1875 13.375 C-0.3125 13 -0.3125 13 -2.8125 12.375 C-4.93614481 12.14890663 -4.93614481 12.14890663 -6.4375 13.875 C-6.89125 14.37 -7.345 14.865 -7.8125 15.375 C-9.47399953 7.97227934 -9.47399953 7.97227934 -8.01171875 4.44140625 C-5.57715881 1.13452842 -4.06971186 0.40029953 0 0 Z " fill="#414141" transform="translate(62.8125,37.625)"/>
<path d="M0 0 C3.125 0.375 3.125 0.375 6 1 C6.125 3.375 6.125 3.375 6 6 C5.34 6.66 4.68 7.32 4 8 C1.375 7.625 1.375 7.625 -1 7 C-1.625 4.625 -1.625 4.625 -2 2 C-1.34 1.34 -0.68 0.68 0 0 Z " fill="#EDEDED" transform="translate(61,43)"/>
<path d="M0 0 C3.3 0 6.6 0 10 0 C9.67 1.65 9.34 3.3 9 5 C6.1875 5.6875 6.1875 5.6875 3 6 C1.125 4.75 1.125 4.75 0 3 C0 2.01 0 1.02 0 0 Z " fill="#DBDBDB" transform="translate(34,322)"/>
<path d="M0 0 C0.99 0 1.98 0 3 0 C2.67 0.99 2.34 1.98 2 3 C-7.9 3 -17.8 3 -28 3 C-28 2.67 -28 2.34 -28 2 C-18.76 2 -9.52 2 0 2 C0 1.34 0 0.68 0 0 Z " fill="#7D7D7D" transform="translate(144,334)"/>
<path d="M0 0 C2.64 0 5.28 0 8 0 C7.67 0.66 7.34 1.32 7 2 C5.35 1.67 3.7 1.34 2 1 C1.67 2.32 1.34 3.64 1 5 C0.01 5 -0.98 5 -2 5 C-1.34 3.35 -0.68 1.7 0 0 Z " fill="#5F5F5F" transform="translate(109,23)"/>
<path d="M0 0 C0.33 0.66 0.66 1.32 1 2 C0.01 2 -0.98 2 -2 2 C-2 2.66 -2 3.32 -2 4 C-2.66 4 -3.32 4 -4 4 C-4.33 4.66 -4.66 5.32 -5 6 C-5.66 6 -6.32 6 -7 6 C-5.9024777 3.00675737 -5.32317108 2.15389099 -2.375 0.75 C-1.59125 0.5025 -0.8075 0.255 0 0 Z " fill="#828282" transform="translate(30,106)"/>
<path d="M0 0 C2 1 2 1 2 1 Z " fill="#F6F6F6" transform="translate(109,21)"/>
<path d="" fill="#F7F7F7" transform="translate(0,0)"/>
<path d="" fill="#F7F7F7" transform="translate(0,0)"/>
<path d="" fill="#F5F5F5" transform="translate(0,0)"/>
<path d="" fill="#F5F5F5" transform="translate(0,0)"/>
<path d="" fill="#F7F7F7" transform="translate(0,0)"/>
<path d="" fill="#F5F5F5" transform="translate(0,0)"/>
<path d="" fill="#F5F5F5" transform="translate(0,0)"/>
<path d="" fill="#F7F7F7" transform="translate(0,0)"/>
<path d="" fill="#F5F5F5" transform="translate(0,0)"/>
<path d="" fill="#F5F5F5" transform="translate(0,0)"/>
<path d="" fill="#F5F5F5" transform="translate(0,0)"/>
<path d="" fill="#F7F7F7" transform="translate(0,0)"/>
<path d="" fill="#F6F6F6" transform="translate(0,0)"/>
<path d="" fill="#F7F7F7" transform="translate(0,0)"/>
<path d="" fill="#F7F7F7" transform="translate(0,0)"/>
<path d="" fill="#F2F2F2" transform="translate(0,0)"/>
<path d="" fill="#F6F6F6" transform="translate(0,0)"/>
<path d="" fill="#F5F5F5" transform="translate(0,0)"/>
<path d="" fill="#F3F3F3" transform="translate(0,0)"/>
<path d="" fill="#F6F6F6" transform="translate(0,0)"/>
<path d="" fill="#F7F7F7" transform="translate(0,0)"/>
<path d="" fill="#F6F6F6" transform="translate(0,0)"/>
<path d="" fill="#F3F3F3" transform="translate(0,0)"/>
<path d="" fill="#F7F7F7" transform="translate(0,0)"/>
<path d="" fill="#F3F3F3" transform="translate(0,0)"/>
<path d="" fill="#F5F5F5" transform="translate(0,0)"/>
<path d="" fill="#F6F6F6" transform="translate(0,0)"/>
<path d="" fill="#F7F7F7" transform="translate(0,0)"/>
<path d="" fill="#F5F5F5" transform="translate(0,0)"/>
<path d="" fill="#F7F7F7" transform="translate(0,0)"/>
<path d="" fill="#F2F2F2" transform="translate(0,0)"/>
<path d="" fill="#F7F7F7" transform="translate(0,0)"/>
<path d="" fill="#F3F3F3" transform="translate(0,0)"/>
<path d="" fill="#F7F7F7" transform="translate(0,0)"/>
<path d="" fill="#F5F5F5" transform="translate(0,0)"/>
<path d="" fill="#F3F3F3" transform="translate(0,0)"/>
<path d="" fill="#F1F1F1" transform="translate(0,0)"/>
<path d="" fill="#F6F6F6" transform="translate(0,0)"/>
<path d="" fill="#F7F7F7" transform="translate(0,0)"/>
<path d="" fill="#F7F7F7" transform="translate(0,0)"/>
<path d="" fill="#F7F7F7" transform="translate(0,0)"/>
<path d="" fill="#F7F7F7" transform="translate(0,0)"/>
<path d="" fill="#F6F6F6" transform="translate(0,0)"/>
<path d="" fill="#F4F4F4" transform="translate(0,0)"/>
<path d="" fill="#F2F2F2" transform="translate(0,0)"/>
<path d="" fill="#F2F2F2" transform="translate(0,0)"/>
<path d="" fill="#F7F7F7" transform="translate(0,0)"/>
<path d="" fill="#F0F0F0" transform="translate(0,0)"/>
<path d="" fill="#F5F5F5" transform="translate(0,0)"/>
<path d="" fill="#F5F5F5" transform="translate(0,0)"/>
<path d="" fill="#F5F5F5" transform="translate(0,0)"/>
<path d="" fill="#F7F7F7" transform="translate(0,0)"/>
<path d="" fill="#F4F4F4" transform="translate(0,0)"/>
<path d="" fill="#F5F5F5" transform="translate(0,0)"/>
<path d="" fill="#F3F3F3" transform="translate(0,0)"/>
<path d="" fill="#F3F3F3" transform="translate(0,0)"/>
<path d="" fill="#EFEFEF" transform="translate(0,0)"/>
<path d="" fill="#F6F6F6" transform="translate(0,0)"/>
<path d="" fill="#F4F4F4" transform="translate(0,0)"/>
<path d="" fill="#F6F6F6" transform="translate(0,0)"/>
<path d="" fill="#F4F4F4" transform="translate(0,0)"/>
<path d="" fill="#F6F6F6" transform="translate(0,0)"/>
<path d="" fill="#F3F3F3" transform="translate(0,0)"/>
<path d="" fill="#F4F4F4" transform="translate(0,0)"/>
<path d="" fill="#F7F7F7" transform="translate(0,0)"/>
<path d="" fill="#F7F7F7" transform="translate(0,0)"/>
<path d="" fill="#F6F6F6" transform="translate(0,0)"/>
<path d="" fill="#F4F4F4" transform="translate(0,0)"/>
<path d="" fill="#F6F6F6" transform="translate(0,0)"/>
<path d="" fill="#F7F7F7" transform="translate(0,0)"/>
<path d="" fill="#F7F7F7" transform="translate(0,0)"/>
<path d="" fill="#F3F3F3" transform="translate(0,0)"/>
<path d="" fill="#F6F6F6" transform="translate(0,0)"/>
<path d="" fill="#F7F7F7" transform="translate(0,0)"/>
<path d="" fill="#F1F1F1" transform="translate(0,0)"/>
<path d="" fill="#F6F6F6" transform="translate(0,0)"/>
</svg>
